<?xml version="1.0" encoding="UTF-8" standalone="no"?>
<!-- Created with Inkscape (http://www.inkscape.org/) -->

<svg
   version="1.1"
   id="svg2"
   xml:space="preserve"
   width="945.01331"
   height="288.09332"
   viewBox="0 0 945.01331 288.09332"
   sodipodi:docname="LogoAlianzag-bn.eps"
   xmlns:inkscape="http://www.inkscape.org/namespaces/inkscape"
   xmlns:sodipodi="http://sodipodi.sourceforge.net/DTD/sodipodi-0.dtd"
   xmlns="http://www.w3.org/2000/svg"
   xmlns:svg="http://www.w3.org/2000/svg"><defs
     id="defs6" /><sodipodi:namedview
     id="namedview4"
     pagecolor="#ffffff"
     bordercolor="#666666"
     borderopacity="1.0"
     inkscape:pageshadow="2"
     inkscape:pageopacity="0.0"
     inkscape:pagecheckerboard="0" /><g
     id="g8"
     inkscape:groupmode="layer"
     inkscape:label="ink_ext_XXXXXX"
     transform="matrix(1.3333333,0,0,-1.3333333,0,288.09333)"><g
       id="g10"
       transform="scale(0.1)"><path
         d="M 973.801,4.26172 C 1005.36,1.48828 1037.27,0 1069.54,0 1131.2,0 1191.63,5.23828 1250.47,15.1602 989.801,305.922 833.484,676.57 833.484,1080.36 c 0,403.79 156.317,774.45 416.986,1065.19 -58.84,9.93 -119.27,15.17 -180.93,15.17 -32.27,0 -64.18,-1.5 -95.731,-4.27 C 758.285,1846.71 633.004,1477.21 633.004,1080.36 633.004,683.5 758.281,314 973.801,4.26172"
         style="fill:#2a3a39;fill-opacity:1;fill-rule:nonzero;stroke:none"
         id="path12" /><path
         d="m 1173.49,1080.36 c 0,-366.989 155.14,-701.02 409,-951.04 61.83,33.418 120.04,72.68 173.87,117.059 -236.47,212.691 -383,507.769 -383,833.981 0,326.2 146.54,621.28 383,833.97 -53.83,44.39 -112.04,83.64 -173.87,117.06 -253.86,-250.01 -409,-584.03 -409,-951.03"
         style="fill:#2a3a39;fill-opacity:1;fill-rule:nonzero;stroke:none"
         id="path14" /><path
         d="m 1713.68,1080.36 c 0,-230.919 96.75,-441.149 255.18,-598.782 114.34,171.402 181.05,377.281 181.05,598.782 0,221.49 -66.71,427.38 -181.05,598.77 -158.43,-157.62 -255.18,-367.85 -255.18,-598.77"
         style="fill:#2a3a39;fill-opacity:1;fill-rule:nonzero;stroke:none"
         id="path16" /><path
         d="M 0,927.781 C 44.8516,610.59 227.344,337.66 485.223,171.52 381.117,406.41 316.328,661.012 298.289,927.781 H 0"
         style="fill:#2a3a39;fill-opacity:1;fill-rule:nonzero;stroke:none"
         id="path18" /><path
         d="M 485.223,1989.19 C 227.344,1823.05 44.8516,1550.13 0,1232.94 h 298.289 c 18.043,266.76 82.828,521.37 186.934,756.25"
         style="fill:#2a3a39;fill-opacity:1;fill-rule:nonzero;stroke:none"
         id="path20" /><path
         d="m 2771.29,969.852 -38.56,193.838 c -12.26,56.36 -28.03,149.85 -38.55,210.33 h -5.26 c -12.26,-61.86 -29.79,-156.72 -42.05,-210.33 L 2603.06,969.852 Z M 2580.27,829.641 2527.7,617.93 H 2305.15 L 2561,1544.49 h 275.13 l 229.56,-926.56 h -222.55 l -50.82,211.711 h -212.05"
         style="fill:#2a3a39;fill-opacity:1;fill-rule:nonzero;stroke:none"
         id="path22" /><path
         d="m 3126.11,1544.49 h 229.57 V 770.52 h 301.41 V 617.93 h -530.98 v 926.56"
         style="fill:#2a3a39;fill-opacity:1;fill-rule:nonzero;stroke:none"
         id="path24" /><path
         d="M 3958.99,1544.49 V 617.93 h -229.56 v 926.56 h 229.56"
         style="fill:#2a3a39;fill-opacity:1;fill-rule:nonzero;stroke:none"
         id="path26" /><path
         d="m 4499.95,969.852 -38.54,193.838 c -12.28,56.36 -28.05,149.85 -38.56,210.33 h -5.26 c -12.26,-61.86 -29.79,-156.72 -42.05,-210.33 L 4331.72,969.852 Z M 4308.94,829.641 4256.37,617.93 h -222.55 l 255.85,926.56 h 275.12 L 4794.35,617.93 H 4571.8 l -50.82,211.711 h -212.04"
         style="fill:#2a3a39;fill-opacity:1;fill-rule:nonzero;stroke:none"
         id="path28" /><path
         d="m 4861.44,617.93 v 926.56 h 210.3 l 182.24,-362.93 c 36.81,-71.48 92.88,-191.08 126.18,-270.81 h 3.5 c -7,97.6 -22.77,258.44 -22.77,428.91 v 204.83 H 5562.4 V 617.93 h -210.28 l -180.49,351.922 c -40.31,78.358 -92.88,196.588 -120.93,279.068 h -3.5 c 7.02,-93.47 15.77,-236.45 15.77,-423.408 V 617.93 h -201.53"
         style="fill:#2a3a39;fill-opacity:1;fill-rule:nonzero;stroke:none"
         id="path30" /><path
         d="m 5640.75,723.781 375.01,659.869 v 4.12 H 5675.8 v 156.72 h 597.57 V 1411.14 L 5915.88,778.77 v -4.122 h 355.74 V 617.93 h -630.87 v 105.851"
         style="fill:#2a3a39;fill-opacity:1;fill-rule:nonzero;stroke:none"
         id="path32" /><path
         d="m 6793.15,969.852 -38.54,193.838 c -12.28,56.36 -28.05,149.85 -38.57,210.33 h -5.25 c -12.27,-61.86 -29.8,-156.72 -42.05,-210.33 l -43.82,-193.838 z m -191,-140.211 -52.58,-211.711 h -222.55 l 255.85,926.56 H 6858 L 7087.56,617.93 H 6865 l -50.82,211.711 h -212.03"
         style="fill:#2a3a39;fill-opacity:1;fill-rule:nonzero;stroke:none"
         id="path34" /><path
         d="m 2546.13,393.41 c -9.07,12.18 -20.26,21.309 -33.57,27.418 -13.32,6.082 -27.2,9.133 -41.65,9.133 -16.72,0 -32.09,-3.402 -46.12,-10.199 -14.02,-6.801 -26.13,-15.93 -36.33,-27.41 -10.2,-11.473 -18.14,-24.793 -23.8,-39.954 -5.67,-15.168 -8.5,-30.957 -8.5,-47.386 0,-17.571 2.83,-33.934 8.5,-49.09 5.66,-15.16 13.53,-28.34 23.59,-39.531 10.05,-11.192 22.1,-20.051 36.12,-26.563 14.03,-6.508 29.54,-9.769 46.54,-9.769 18.41,0 34.85,3.613 49.3,10.839 14.45,7.223 27.05,17.633 37.82,31.243 l 26.78,-22.532 c -13.6,-18.14 -29.96,-31.449 -49.09,-39.949 -19.12,-8.5 -40.73,-12.75 -64.81,-12.75 -21.54,0 -41.65,3.981 -60.35,11.899 -18.7,7.929 -34.93,18.91 -48.66,32.941 -13.75,14.02 -24.51,30.66 -32.31,49.941 -7.79,19.258 -11.68,40.368 -11.68,63.321 0,22.097 3.75,42.777 11.26,62.047 7.5,19.273 18.07,35.972 31.66,50.152 13.6,14.16 29.75,25.359 48.45,33.578 18.7,8.211 39.24,12.32 61.63,12.32 20.4,0 40.02,-3.687 58.86,-11.05 18.84,-7.379 34.64,-19.411 47.39,-36.129 l -31.03,-22.52"
         style="fill:#2a3a39;fill-opacity:1;fill-rule:nonzero;stroke:none"
         id="path36" /><path
         d="m 2715.28,455.461 h 35.7 v -267.75 h 137.7 v -33.152 h -173.4 v 300.902"
         style="fill:#2a3a39;fill-opacity:1;fill-rule:nonzero;stroke:none"
         id="path38" /><path
         d="m 3234.21,269.309 c 0,-16.43 -2.06,-32.02 -6.16,-46.75 -4.12,-14.731 -10.63,-27.7 -19.56,-38.887 -8.92,-11.192 -20.61,-20.121 -35.06,-26.774 -14.45,-6.66 -32.02,-9.988 -52.7,-9.988 -20.68,0 -38.25,3.328 -52.7,9.988 -14.45,6.653 -26.14,15.582 -35.06,26.774 -8.93,11.187 -15.45,24.156 -19.55,38.887 -4.11,14.73 -6.17,30.32 -6.17,46.75 v 186.152 h 35.71 V 274.41 c 0,-12.191 1.27,-23.941 3.82,-35.269 2.55,-11.34 6.8,-21.403 12.75,-30.18 5.95,-8.789 13.88,-15.801 23.8,-21.031 9.92,-5.258 22.38,-7.871 37.4,-7.871 15.02,0 27.48,2.613 37.4,7.871 9.92,5.23 17.85,12.242 23.8,21.031 5.95,8.777 10.2,18.84 12.75,30.18 2.55,11.328 3.82,23.078 3.82,35.269 v 181.051 h 35.71 V 269.309"
         style="fill:#2a3a39;fill-opacity:1;fill-rule:nonzero;stroke:none"
         id="path40" /><path
         d="m 3424.18,187.711 h 60.35 c 8.77,0 17.49,0.918 26.14,2.769 8.64,1.829 16.42,4.809 23.37,8.918 6.94,4.102 12.54,9.481 16.79,16.141 4.25,6.66 6.38,14.813 6.38,24.449 0,10.481 -2.06,19.262 -6.17,26.344 -4.11,7.09 -9.49,12.758 -16.15,17.008 -6.66,4.242 -14.31,7.219 -22.95,8.922 -8.65,1.699 -17.5,2.547 -26.56,2.547 h -61.2 z m 0,140.25 h 49.3 c 8.5,0 16.79,0.559 24.86,1.699 8.07,1.129 15.36,3.461 21.89,7.02 6.51,3.531 11.75,8.492 15.72,14.871 3.97,6.379 5.95,14.789 5.95,25.277 0,9.363 -1.84,16.942 -5.52,22.75 -3.69,5.801 -8.57,10.41 -14.66,13.813 -6.1,3.39 -13.04,5.73 -20.83,7.007 -7.8,1.282 -15.66,1.911 -23.59,1.911 h -53.12 z m -35.7,127.5 h 91.8 c 12.46,0 24.65,-1.27 36.55,-3.82 11.9,-2.551 22.52,-6.743 31.88,-12.539 9.35,-5.813 16.92,-13.391 22.73,-22.743 5.8,-9.347 8.72,-20.968 8.72,-34.847 0,-17.571 -4.75,-32.09 -14.24,-43.563 -9.5,-11.48 -22.32,-19.621 -38.47,-24.437 v -0.852 c 9.63,-0.851 18.63,-3.34 26.99,-7.441 8.36,-4.11 15.58,-9.418 21.68,-15.938 6.09,-6.519 10.83,-14.101 14.24,-22.73 3.4,-8.653 5.1,-17.93 5.1,-27.84 0,-16.723 -3.48,-30.461 -10.41,-41.223 -6.96,-10.769 -16.02,-19.34 -27.21,-25.718 -11.19,-6.372 -23.8,-10.84 -37.83,-13.379 -14.02,-2.551 -27.98,-3.832 -41.86,-3.832 h -89.67 v 300.902"
         style="fill:#2a3a39;fill-opacity:1;fill-rule:nonzero;stroke:none"
         id="path42" /><path
         d="m 3966.05,187.711 h 68 c 17.28,0 33.29,2.269 48.03,6.801 14.73,4.527 27.47,11.539 38.24,21.027 10.77,9.5 19.27,21.609 25.51,36.34 6.22,14.742 9.34,32.441 9.34,53.133 0,20.679 -3.12,38.386 -9.34,53.117 -6.24,14.742 -14.74,26.851 -25.51,36.34 -10.77,9.492 -23.51,16.5 -38.24,21.043 -14.74,4.527 -30.75,6.797 -48.03,6.797 h -68 z m -35.7,267.75 h 115.6 c 9.92,0 20.4,-1.141 31.45,-3.402 11.05,-2.27 22.02,-5.879 32.94,-10.84 10.9,-4.949 21.39,-11.41 31.45,-19.34 10.05,-7.93 18.91,-17.488 26.56,-28.68 7.65,-11.199 13.74,-24.09 18.28,-38.679 4.52,-14.59 6.8,-31.098 6.8,-49.508 0,-18.422 -2.28,-34.93 -6.8,-49.512 -4.54,-14.59 -10.63,-27.488 -18.28,-38.68 -7.65,-11.199 -16.51,-20.761 -26.56,-28.691 -10.06,-7.93 -20.55,-14.379 -31.45,-19.328 -10.92,-4.969 -21.89,-8.582 -32.94,-10.84 -11.05,-2.27 -21.53,-3.402 -31.45,-3.402 h -115.6 v 300.902"
         style="fill:#2a3a39;fill-opacity:1;fill-rule:nonzero;stroke:none"
         id="path44" /><path
         d="m 4331.55,455.461 h 189.12 v -33.152 h -153.43 v -94.348 h 143.24 V 294.809 H 4367.24 V 187.711 h 161.09 v -33.152 h -196.78 v 300.902"
         style="fill:#2a3a39;fill-opacity:1;fill-rule:nonzero;stroke:none"
         id="path46" /><path
         d="m 5074.02,393.41 c -9.07,12.18 -20.26,21.309 -33.57,27.418 -13.32,6.082 -27.21,9.133 -41.65,9.133 -16.73,0 -32.09,-3.402 -46.12,-10.199 -14.02,-6.801 -26.14,-15.93 -36.33,-27.41 -10.21,-11.473 -18.14,-24.793 -23.8,-39.954 -5.68,-15.168 -8.51,-30.957 -8.51,-47.386 0,-17.571 2.83,-33.934 8.51,-49.09 5.66,-15.16 13.52,-28.34 23.58,-39.531 10.06,-11.192 22.1,-20.051 36.12,-26.563 14.03,-6.508 29.55,-9.769 46.55,-9.769 18.41,0 34.84,3.613 49.29,10.839 14.46,7.223 27.06,17.633 37.83,31.243 l 26.77,-22.532 c -13.6,-18.14 -29.96,-31.449 -49.09,-39.949 -19.12,-8.5 -40.73,-12.75 -64.8,-12.75 -21.55,0 -41.65,3.981 -60.35,11.899 -18.71,7.929 -34.93,18.91 -48.67,32.941 -13.75,14.02 -24.51,30.66 -32.3,49.941 -7.79,19.258 -11.69,40.368 -11.69,63.321 0,22.097 3.76,42.777 11.27,62.047 7.5,19.273 18.06,35.972 31.66,50.152 13.6,14.16 29.75,25.359 48.45,33.578 18.7,8.211 39.24,12.32 61.63,12.32 20.4,0 40.01,-3.687 58.86,-11.05 18.83,-7.379 34.63,-19.411 47.39,-36.129 l -31.03,-22.52"
         style="fill:#2a3a39;fill-opacity:1;fill-rule:nonzero;stroke:none"
         id="path48" /><path
         d="m 5383,180.059 c 17.56,0 33.64,3.261 48.23,9.769 14.59,6.512 27.13,15.442 37.62,26.781 10.47,11.332 18.62,24.582 24.43,39.731 5.81,15.16 8.71,31.379 8.71,48.672 0,17.277 -2.9,33.5 -8.71,48.66 -5.81,15.16 -13.96,28.406 -24.43,39.738 -10.49,11.328 -23.03,20.25 -37.62,26.77 -14.59,6.519 -30.67,9.781 -48.23,9.781 -17.57,0 -33.66,-3.262 -48.25,-9.781 -14.59,-6.52 -27.12,-15.442 -37.6,-26.77 -10.49,-11.332 -18.64,-24.578 -24.45,-39.738 -5.81,-15.16 -8.71,-31.383 -8.71,-48.66 0,-17.293 2.9,-33.512 8.71,-48.672 5.81,-15.149 13.96,-28.399 24.45,-39.731 10.48,-11.339 23.01,-20.269 37.6,-26.781 14.59,-6.508 30.68,-9.769 48.25,-9.769 z m 0,-33.149 c -22.95,0 -43.99,3.981 -63.12,11.899 -19.12,7.929 -35.7,18.91 -49.72,32.941 -14.03,14.02 -24.94,30.738 -32.73,50.148 -7.79,19.411 -11.69,40.442 -11.69,63.114 0,22.66 3.9,43.699 11.69,63.109 7.79,19.41 18.7,36.129 32.73,50.149 14.02,14.031 30.6,25.011 49.72,32.941 19.13,7.93 40.17,11.898 63.12,11.898 22.95,0 43.98,-3.968 63.11,-11.898 19.12,-7.93 35.7,-18.91 49.72,-32.941 14.03,-14.02 24.93,-30.739 32.72,-50.149 7.8,-19.41 11.69,-40.449 11.69,-63.109 0,-22.672 -3.89,-43.703 -11.69,-63.114 -7.79,-19.41 -18.69,-36.128 -32.72,-50.148 -14.02,-14.031 -30.6,-25.012 -49.72,-32.941 -19.13,-7.918 -40.16,-11.899 -63.11,-11.899"
         style="fill:#2a3a39;fill-opacity:1;fill-rule:nonzero;stroke:none"
         id="path50" /><path
         d="m 5678.37,455.461 h 53.12 l 102,-235.871 h 0.85 l 102.85,235.871 h 51.85 V 154.559 h -35.7 v 252.453 h -0.85 L 5844.54,154.559 h -21.67 l -107.96,252.453 h -0.85 V 154.559 h -35.69 v 300.902"
         style="fill:#2a3a39;fill-opacity:1;fill-rule:nonzero;stroke:none"
         id="path52" /><path
         d="m 6180.29,322.859 h 60.35 c 17.85,0 32.38,4.039 43.57,12.11 11.19,8.07 16.78,20.609 16.78,37.613 0,17.008 -5.59,29.547 -16.78,37.617 -11.19,8.071 -25.72,12.11 -43.57,12.11 h -60.35 z m -35.69,132.602 h 89.25 c 13.87,0 27.13,-1.352 39.73,-4.039 12.61,-2.692 23.8,-7.223 33.58,-13.602 9.77,-6.371 17.57,-14.871 23.38,-25.5 5.8,-10.621 8.71,-23.73 8.71,-39.308 0,-16.434 -3.13,-30.032 -9.36,-40.801 -6.23,-10.77 -14.23,-19.27 -24,-25.5 -9.78,-6.231 -20.48,-10.633 -32.09,-13.18 -11.62,-2.551 -22.68,-3.82 -33.16,-3.82 h -60.35 V 154.559 h -35.69 v 300.902"
         style="fill:#2a3a39;fill-opacity:1;fill-rule:nonzero;stroke:none"
         id="path54" /><path
         d="m 6513.06,322.859 h 31.87 c 9.92,0 20.2,0.282 30.82,0.852 10.63,0.559 20.4,2.398 29.33,5.527 8.91,3.114 16.29,7.992 22.1,14.653 5.8,6.66 8.71,16.218 8.71,28.691 0,10.77 -2.13,19.406 -6.38,25.93 -4.25,6.519 -9.85,11.547 -16.79,15.09 -6.94,3.539 -14.73,5.867 -23.38,7.007 -8.64,1.129 -17.35,1.7 -26.13,1.7 h -50.15 z m -35.7,132.602 h 76.93 c 14.45,0 28.82,-0.852 43.13,-2.551 14.31,-1.699 27.13,-5.379 38.47,-11.051 11.33,-5.668 20.53,-13.961 27.62,-24.859 7.07,-10.91 10.63,-25.711 10.63,-44.418 0,-22.094 -6.67,-39.953 -19.98,-53.551 -13.32,-13.59 -31.74,-22.25 -55.25,-25.922 l 85.42,-138.55 h -43.77 l -81.6,135.152 h -45.9 V 154.559 h -35.7 v 300.902"
         style="fill:#2a3a39;fill-opacity:1;fill-rule:nonzero;stroke:none"
         id="path56" /><path
         d="m 6931.69,409.559 h -0.85 L 6868.37,261.66 h 122.82 z m -16.15,45.902 h 33.57 l 127.93,-300.902 h -41.65 l -30.6,73.953 h -150.46 l -31.01,-73.953 h -40.38 l 132.6,300.902"
         style="fill:#2a3a39;fill-opacity:1;fill-rule:nonzero;stroke:none"
         id="path58" /></g></g></svg>
