<svg width="20" height="20" viewBox="0 0 20 20" fill="none" xmlns="http://www.w3.org/2000/svg">
<path d="M10.0127 0C4.50616 0 0.0234867 4.47837 0.0214865 9.98438C0.0204864 11.7444 0.481516 13.4626 1.3556 14.9766L0 20L5.23293 18.7637C6.69207 19.5597 8.33467 19.9775 10.0068 19.9785H10.0107C15.5163 19.9785 19.997 15.4991 20 9.99414C20.002 7.32514 18.964 4.81573 17.0778 2.92773C15.1917 1.04073 12.685 0.001 10.0127 0ZM10.0107 2C12.1469 2.001 14.1545 2.8338 15.6636 4.3418C17.1728 5.8518 18.0018 7.85819 17.9998 9.99219C17.9978 14.3962 14.4152 17.9785 10.0088 17.9785C8.67566 17.9775 7.35512 17.6428 6.19201 17.0078L5.51812 16.6406L4.7739 16.8164L2.80496 17.2812L3.28548 15.4961L3.50229 14.6953L3.08819 13.9766C2.39012 12.7686 2.02068 11.3874 2.02168 9.98438C2.02368 5.58238 5.60731 2 10.0107 2ZM6.47719 5.375C6.31018 5.375 6.04014 5.4375 5.81111 5.6875C5.58209 5.9365 4.93603 6.53958 4.93603 7.76758C4.93603 8.99558 5.83065 10.1826 5.95566 10.3496C6.07967 10.5156 7.6825 13.1152 10.2197 14.1152C12.328 14.9462 12.7561 14.7822 13.2142 14.7402C13.6722 14.6992 14.6919 14.1377 14.8999 13.5547C15.1079 12.9717 15.1084 12.4702 15.0464 12.3672C14.9844 12.2632 14.8179 12.2012 14.5678 12.0762C14.3188 11.9512 13.0916 11.3486 12.8626 11.2656C12.6336 11.1826 12.466 11.1406 12.3 11.3906C12.134 11.6406 11.6569 12.2012 11.5109 12.3672C11.3649 12.5342 11.2198 12.5566 10.9698 12.4316C10.7198 12.3056 9.91591 12.0414 8.96181 11.1914C8.21974 10.5304 7.71902 9.71484 7.573 9.46484C7.42799 9.21584 7.55933 9.07908 7.68434 8.95508C7.79635 8.84308 7.93241 8.66358 8.05743 8.51758C8.18144 8.37158 8.22444 8.26756 8.30745 8.10156C8.39046 7.93556 8.34797 7.78906 8.28596 7.66406C8.22396 7.53906 7.73838 6.3065 7.51636 5.8125C7.32934 5.3975 7.13182 5.38786 6.9538 5.38086C6.80879 5.37486 6.64321 5.375 6.47719 5.375Z" fill="white"/>
</svg>
