<?xml version="1.0" encoding="iso-8859-1"?>
<!-- Generator: Adobe Illustrator 19.0.0, SVG Export Plug-In . SVG Version: 6.00 Build 0)  -->
<svg version="1.1" id="Layer_1" xmlns="http://www.w3.org/2000/svg" xmlns:xlink="http://www.w3.org/1999/xlink" x="0px" y="0px"
	 viewBox="0 0 512 512" style="enable-background:new 0 0 512 512;" xml:space="preserve">
<g>
	<g>
		<circle cx="174.545" cy="360.727" r="11.636"/>
	</g>
</g>
<g>
	<g>
		<path fill="#ffffff" d="M500.364,442.182c-6.982,0-11.636,4.655-11.636,11.636v34.909H23.273v-23.273h23.273h418.909
			c6.982,0,11.636-4.655,11.636-11.636V267.636c0-6.982-4.655-11.636-11.636-11.636c-6.982,0-11.636,4.655-11.636,11.636v174.545
			H104.727V279.273h93.091v128c0,6.982,4.655,11.636,11.636,11.636c6.982,0,11.636-4.655,11.636-11.636V267.636
			c0-6.982-4.655-11.636-11.636-11.636H93.091c-6.982,0-11.636,4.655-11.636,11.636v174.545H46.545H11.636
			C4.655,442.182,0,446.836,0,453.818v46.545C0,507.345,4.655,512,11.636,512h488.727c6.982,0,11.636-4.655,11.636-11.636v-46.545
			C512,446.836,507.345,442.182,500.364,442.182z"/>
	</g>
</g>
<g>
	<g>
		<path fill="#ffffff" d="M477.091,68.655V11.636C477.091,4.655,472.436,0,465.455,0H46.545c-6.982,0-11.636,4.655-11.636,11.636v68.655
			l-23.273,91.927c0,1.164,0,2.327,0,2.327c0,20.945,9.309,39.564,23.273,52.364v180.364c0,6.982,4.655,11.636,11.636,11.636
			s11.636-4.655,11.636-11.636V239.709c6.982,3.491,15.127,4.655,23.273,4.655c24.436,0,45.382-12.8,58.182-31.418
			c12.8,18.618,33.745,31.418,58.182,31.418c24.436,0,45.382-12.8,58.182-31.418c12.8,18.618,33.745,31.418,58.182,31.418
			c24.436,0,45.382-12.8,58.182-31.418c12.8,18.618,33.745,31.418,58.182,31.418c38.4,0,69.818-31.418,69.818-69.818
			c0-1.164,0-1.164,0-2.327L477.091,68.655z M58.182,23.273h395.636v46.545H58.182V23.273z M430.545,221.091
			c-25.6,0-46.545-20.945-46.545-46.545c0-6.982-4.655-11.636-11.636-11.636h-69.818c-6.982,0-11.636,4.655-11.636,11.636
			s4.655,11.636,11.636,11.636h57.018c-4.655,19.782-23.273,34.909-45.382,34.909c-25.6,0-46.545-20.945-46.545-46.545
			c0-6.982-4.655-11.636-11.636-11.636h-69.818c-6.982,0-11.636,4.655-11.636,11.636s4.655,11.636,11.636,11.636H243.2
			c-4.655,19.782-23.273,34.909-45.382,34.909c-25.6,0-46.545-20.945-46.545-46.545c0-6.982-4.655-11.636-11.636-11.636H69.818
			c-6.982,0-11.636,4.655-11.636,11.636s4.655,11.636,11.636,11.636h57.018c-4.655,19.782-23.273,34.909-45.382,34.909
			c-25.6,0-45.382-19.782-46.545-45.382l20.945-82.618H128V128c0,6.982,4.655,11.636,11.636,11.636s11.636-4.655,11.636-11.636
			V93.091h93.091V128c0,6.982,4.655,11.636,11.636,11.636s11.636-4.655,11.636-11.636V93.091h93.091V128
			c0,6.982,4.655,11.636,11.636,11.636S384,134.982,384,128V93.091h74.473l15.127,69.818h-54.691
			c-6.982,0-11.636,4.655-11.636,11.636s4.655,11.636,11.636,11.636h57.018C470.109,205.964,452.655,221.091,430.545,221.091z"/>
	</g>
</g>
<g>
	<g>
		<path fill="#ffffff" d="M418.909,256H256c-6.982,0-11.636,4.655-11.636,11.636v139.636c0,6.982,4.655,11.636,11.636,11.636h162.909
			c6.982,0,11.636-4.655,11.636-11.636V267.636C430.545,260.655,425.891,256,418.909,256z M407.273,395.636H267.636V279.273h139.636
			V395.636z"/>
	</g>
</g>
<g>
</g>
<g>
</g>
<g>
</g>
<g>
</g>
<g>
</g>
<g>
</g>
<g>
</g>
<g>
</g>
<g>
</g>
<g>
</g>
<g>
</g>
<g>
</g>
<g>
</g>
<g>
</g>
<g>
</g>
</svg>
